<?xml version="1.0" encoding="UTF-8"?>
<!-- Generator: Adobe Illustrator 15.0.0, SVG Export Plug-In . SVG Version: 6.00 Build 0)  -->
<!DOCTYPE svg PUBLIC "-//W3C//DTD SVG 1.1//EN" "http://www.w3.org/Graphics/SVG/1.1/DTD/svg11.dtd">
<svg version="1.1" xmlns="http://www.w3.org/2000/svg" xmlns:xlink="http://www.w3.org/1999/xlink" x="0px" y="0px" width="48px" height="48px" viewBox="0 0 48 48" enable-background="new 0 0 48 48" xml:space="preserve"><script xmlns=""/>
<g>
	<rect x="11" y="34" fill="#C5CAE9" width="26" height="9"/>
	<rect x="15" y="24" fill="#C5CAE9" width="18" height="9"/>
	<path fill="#C5CAE9" d="M33,22H15c0-4,4.03-8,9-8S33,18,33,22z"/>
	<rect x="22" y="9" fill="#C5CAE9" width="4" height="5"/>
</g>
<g>
	<rect x="13" y="35" fill="#5C6BC0" width="2" height="7"/>
	<rect x="17" y="35" fill="#5C6BC0" width="2" height="7"/>
	<rect x="21" y="35" fill="#5C6BC0" width="2" height="7"/>
	<rect x="25" y="35" fill="#5C6BC0" width="2" height="7"/>
	<rect x="29" y="35" fill="#5C6BC0" width="2" height="7"/>
	<rect x="17" y="25" fill="#5C6BC0" width="2" height="7"/>
	<rect x="21" y="25" fill="#5C6BC0" width="2" height="7"/>
	<rect x="25" y="25" fill="#5C6BC0" width="2" height="7"/>
	<rect x="29" y="25" fill="#5C6BC0" width="2" height="7"/>
	<rect x="33" y="35" fill="#5C6BC0" width="2" height="7"/>
</g>
<g>
	<path fill="#9FA8DA" d="M38,33.5c0,0.828-0.672,1.5-1.5,1.5h-25c-0.828,0-1.5-0.672-1.5-1.5l0,0c0-0.828,0.672-1.5,1.5-1.5h25   C37.328,32,38,32.672,38,33.5L38,33.5z"/>
	<path fill="#9FA8DA" d="M38,43.5c0,0.828-0.672,1.5-1.5,1.5h-25c-0.828,0-1.5-0.672-1.5-1.5l0,0c0-0.828,0.672-1.5,1.5-1.5h25   C37.328,42,38,42.672,38,43.5L38,43.5z"/>
	<path fill="#9FA8DA" d="M35,23.5c0,0.828-0.672,1.5-1.5,1.5h-19c-0.828,0-1.5-0.672-1.5-1.5l0,0c0-0.828,0.672-1.5,1.5-1.5h19   C34.328,22,35,22.672,35,23.5L35,23.5z"/>
	<path fill="#9FA8DA" d="M27,14c0,0.552-0.447,1-1,1h-4c-0.553,0-1-0.448-1-1l0,0c0-0.552,0.447-1,1-1h4C26.553,13,27,13.448,27,14   L27,14z"/>
</g>
<g>
	<path fill="#455A64" d="M26,9.001h-4c0-1.104,0.896-2,2-2S26,7.896,26,9.001z"/>
	<path fill="#455A64" d="M25,8c0,0.552-0.447,1-1,1l0,0c-0.553,0-1-0.448-1-1V4c0-0.552,0.447-1,1-1l0,0c0.553,0,1,0.448,1,1V8z"/>
</g>
</svg>