<svg width="115" height="106" viewBox="0 0 115 106" fill="none" xmlns="http://www.w3.org/2000/svg">
<path d="M113.925 10.3694C111.986 23.4865 51.8969 105 44.1414 105C36.3859 105 3.43402 73.1435 1.49421 64.711C-0.445604 56.2786 3.43603 52.5315 11.1881 53.4685C18.9402 54.4054 32.5091 81.5766 42.203 79.7027C51.8969 77.8288 88.7268 0.999912 101.325 1C107.625 1.00004 114.816 4.34084 113.925 10.3694Z" fill="#BEFB5B" stroke="black" stroke-width="2"/>
<path d="M113.924 10.3693C111.986 23.4864 51.8964 105 44.1409 105C36.3854 105 4.43953 74.9324 2.49972 66.4999C0.559904 58.0675 18.5 76.9999 18.5 76.9999C18.5 76.9999 35.8061 95.8738 45.5 93.9999C55.1939 92.126 103.258 13.4902 106.5 10.3693C110 7.00002 114.57 6.00002 113.924 10.3693Z" fill="#8ACE1B" stroke="black" stroke-width="2"/>
</svg>
