<svg width="262" height="285" viewBox="0 0 262 285" fill="none" xmlns="http://www.w3.org/2000/svg">
<circle cx="123.5" cy="91.5" r="91.5" fill="#5C5C5A"/>
<circle cx="123.5" cy="91.5" r="91.5" fill="#5C5C5A"/>
<path d="M262 243.228C262 293.813 173.666 284.287 123.108 284.287C72.5511 284.287 0 293.813 0 243.228C0 192.642 72.5511 139 123.108 139C173.666 139 262 192.642 262 243.228Z" fill="#5C5C5A"/>
<path d="M262 243.228C262 293.813 173.666 284.287 123.108 284.287C72.5511 284.287 0 293.813 0 243.228C0 192.642 72.5511 139 123.108 139C173.666 139 262 192.642 262 243.228Z" fill="#5C5C5A"/>
</svg>
