<svg width="71" height="118" viewBox="0 0 71 118" fill="none" xmlns="http://www.w3.org/2000/svg">
<path d="M30.5 90C37.9559 90 44 96.0444 44 103.5C44 110.956 37.9559 117 30.5 117C23.0441 117 17 110.956 17 103.5C17 96.0444 23.0441 90 30.5 90Z" fill="#FCCF31" fill-opacity="0.79" stroke="black" stroke-width="2"/>
<path d="M37.4119 106.312L37.4843 106.25L37.5438 106.176C38.5838 104.875 39.4953 103.675 40.2729 102.651C40.6922 102.099 41.0725 101.599 41.4132 101.161C41.9103 100.522 42.3244 100.014 42.6759 99.6359C42.8931 99.402 43.0624 99.2444 43.1895 99.1419C43.2154 99.2049 43.2444 99.2834 43.2755 99.3805C43.549 100.233 43.7707 101.794 43.9999 104.319C43.9777 111.336 38.695 117 31.0529 117C29.4503 117 27.0149 116.654 24.6711 115.613C22.9932 114.867 21.392 113.78 20.162 112.232C23.1737 112.855 25.8409 112.699 28.3717 111.892C31.5387 110.882 34.4068 108.877 37.4119 106.312Z" fill="#C1990A" fill-opacity="0.79" stroke="black" stroke-width="2"/>
<path d="M30 51.0001L30.0099 51C30.638 50.9937 32.2348 50.7575 34.2291 50.229C36.2505 49.6934 38.7619 48.8366 41.2192 47.5442C46.1106 44.9717 51 40.5427 51 33.3333C51 25.9753 43.7354 19 33.3333 19C28.9807 19 25.4167 20.7849 22.9467 23.0065C21.7125 24.1165 20.7382 25.3469 20.0672 26.5415C19.4054 27.7199 19 28.9335 19 30C19 31.1819 18.7672 32.3522 18.3149 33.4442C17.8626 34.5361 17.1997 35.5282 16.364 36.364C15.5282 37.1997 14.5361 37.8626 13.4441 38.3149C12.3522 38.7672 11.1819 39 10 39C8.8181 39 7.64778 38.7672 6.55585 38.3149C5.46392 37.8626 4.47176 37.1997 3.63604 36.364C2.80031 35.5282 2.13738 34.5361 1.68508 33.4442C1.23279 32.3522 1 31.1819 1 30C1 14.3888 15.7172 1 33.3333 1C46.389 1 55.2647 5.86727 60.8951 12.6969C66.5513 19.558 69 28.4845 69 36.6667C69 50.034 61.6988 60.2468 48.2612 65.4679L48.26 65.4683C45.3251 66.6129 42.4161 67.385 39.8032 67.9096L39 68.0708V68.89V73.3333C39 75.7203 38.0518 78.0095 36.364 79.6973C34.6761 81.3851 32.3869 82.3333 30 82.3333C27.6131 82.3333 25.3239 81.3851 23.636 79.6973C21.9482 78.0095 21 75.7203 21 73.3333V60C21 57.6131 21.9482 55.3239 23.636 53.636C25.3239 51.9482 27.613 51 30 51.0001Z" fill="#FBD85B" stroke="black" stroke-width="2"/>
<path d="M68.621 35.5299C68.7866 35.5098 68.9535 35.4807 69.1216 35.4413C69.9055 47.9846 62.0793 60.0396 49.1378 65.0679L49.1367 65.0683C46.1525 66.2322 42.3735 67.5036 39.8032 68.0196L39 68.1808V69V73C39 74.1423 38.6442 75.5313 38.0402 76.8835C37.438 78.2316 36.6264 79.4594 35.7929 80.2929C35.4429 80.6429 34.8283 81.0425 34.0208 81.4101C33.2273 81.7714 32.3101 82.0735 31.4067 82.2597C30.4956 82.4474 29.6481 82.507 28.979 82.4215C28.4986 82.3601 28.1897 82.2361 27.9985 82.0993V66.4V66.3702L27.9967 66.3405C27.8553 63.9656 29.1656 59.6578 35.2661 57.9635C39.8669 56.6858 45.3461 54.2651 49.9452 51.0714C54.5115 47.9004 58.3877 43.8432 59.4734 39.229C59.5208 39.0278 59.5648 38.6781 59.6072 38.2855C59.6523 37.867 59.7026 37.3277 59.7555 36.702C59.8614 35.4495 59.9793 33.8342 60.0894 32.1129C60.309 28.6787 60.5 24.7848 60.5 22.5C60.5 19.0406 59.3515 15.7639 58.3044 13.1267C58.1215 12.666 57.9442 12.2308 57.776 11.818C57.4503 11.0188 57.1588 10.3034 56.927 9.64891C56.8823 9.52267 56.8413 9.40237 56.8038 9.28778C57.6723 9.76139 58.5887 10.3348 59.5428 11.1394C61.1566 12.5004 62.9093 14.5547 64.6056 17.9472C65.9515 20.6392 66.8888 23.9215 67.5748 26.9462C67.9164 28.4526 68.1928 29.8817 68.4265 31.128C68.4733 31.3775 68.5185 31.6208 68.5624 31.8566C68.6702 32.4358 68.7695 32.9699 68.8622 33.4391C68.698 33.4923 68.5377 33.5253 68.379 33.5447L68.621 35.5299Z" fill="#CEA71B" stroke="black" stroke-width="2"/>
</svg>
