<svg width="45" height="131" viewBox="0 0 45 131" fill="none" xmlns="http://www.w3.org/2000/svg">
<path d="M1.37494 26.435C-1.10487 13.2186 9.04149 1 22.4999 1C35.9583 1 46.1048 13.2186 43.6251 26.435L34.3559 75.8345C33.2863 81.535 28.3052 85.6667 22.4999 85.6667C16.6947 85.6667 11.7135 81.535 10.6439 75.8345L1.37494 26.435ZM22.4999 98.5C30.9293 98.5 37.7614 105.329 37.7614 113.75C37.7614 122.171 30.9293 129 22.4999 129C14.0705 129 7.23842 122.171 7.23842 113.75C7.23842 105.329 14.0705 98.5 22.4999 98.5Z" fill="#FCCF31" fill-opacity="0.79" stroke="black" stroke-width="2"/>
<path d="M30.179 116.234L30.2485 116.17L30.3047 116.094C31.4402 114.555 32.4327 113.139 33.2814 111.928C33.74 111.274 34.1566 110.68 34.531 110.158C35.0748 109.401 35.5308 108.795 35.9194 108.342C36.1906 108.025 36.3978 107.821 36.5489 107.696C36.5911 107.794 36.642 107.93 36.6974 108.116C37.0055 109.158 37.2496 111.038 37.5 114.03C37.481 122.519 31.5937 129.239 23.2615 129.239C20.078 129.239 14.2459 127.925 11.0289 123.148C14.4551 123.975 17.4714 123.812 20.3267 122.824C23.7778 121.631 26.9019 119.265 30.179 116.234ZM36.7679 107.549C36.7679 107.549 36.7674 107.549 36.7663 107.549L36.7679 107.549Z" fill="#C1990A" fill-opacity="0.79" stroke="black" stroke-width="2"/>
<path d="M22.8584 85C19.7665 85 17.135 84.5906 15.1274 83.2471C13.2782 82.0095 11.8073 79.8732 11.1073 76.093C12.7795 75.2963 14.1383 75.1524 15.5631 75.0015C15.7987 74.9765 16.036 74.9514 16.2769 74.9231C17.2181 74.8125 18.2146 74.6492 19.2805 74.2191C20.3512 73.787 21.4463 73.1049 22.6328 72.0056C24.9791 69.832 27.7237 65.9866 31.4022 59.0829C34.3236 53.6003 37.8586 46.1404 42.2665 35.9689L34.7346 75.3501C33.667 80.9316 28.6878 85 22.8584 85Z" fill="#C1990A" fill-opacity="0.79" stroke="black" stroke-width="2"/>
</svg>
