<svg width="800" height="800" viewBox="0 0 800 800" fill="none" xmlns="http://www.w3.org/2000/svg">
<g clip-path="url(#clip0_73_156)">
<path d="M639.412 160.589C607.418 128.599 564.812 110.981 519.442 110.981C474.07 110.981 431.463 128.6 399.471 160.589L160.589 399.471C94.4377 465.624 94.4377 573.26 160.589 639.412C192.582 671.403 235.188 689.02 280.56 689.02C325.932 689.02 368.538 671.401 400.53 639.412L639.412 400.53C705.564 334.377 705.564 226.743 639.412 160.589ZM178.566 462.259L428.651 212.174L462.257 245.78L212.172 495.865L178.566 462.259ZM249.191 584.415L215.585 550.809L476.871 289.522L510.478 323.129L249.191 584.415ZM337.743 621.436L304.137 587.829L554.22 337.744L587.826 371.351L337.743 621.436ZM592.748 268.368C575.871 285.244 548.509 285.244 531.632 268.368C514.756 251.491 514.756 224.129 531.632 207.252C548.509 190.375 575.871 190.375 592.748 207.252C609.625 224.13 609.625 251.493 592.748 268.368Z" fill="#1366B4"/>
<path d="M717.825 82.1736C664.834 29.1829 594.379 -1.52588e-05 519.44 -1.52588e-05C444.501 -1.52588e-05 374.046 29.1829 321.055 82.1736L82.1753 321.057C-27.214 430.446 -27.214 608.436 82.1753 717.826C135.166 770.817 205.619 800 280.56 800C355.501 800 425.954 770.817 478.945 717.826L717.825 478.945C827.214 369.554 827.214 191.564 717.825 82.1736ZM673.017 434.135L434.135 673.018C393.165 713.987 338.624 736.55 280.558 736.55C222.491 736.55 167.952 713.989 126.983 673.018C42.3017 588.337 42.3017 450.549 126.983 365.865L365.865 126.983C406.834 86.0142 461.374 63.4517 519.442 63.4517C577.507 63.4517 632.048 86.0126 673.017 126.983C757.699 211.666 757.699 349.454 673.017 434.135Z" fill="#237AFD"/>
</g>
<defs>
<clipPath id="clip0_73_156">
<rect width="800" height="800" fill="white"/>
</clipPath>
</defs>
</svg>
