<svg width="37" height="52" viewBox="0 0 37 52" fill="none" xmlns="http://www.w3.org/2000/svg">
<path d="M15.2516 14.8688L18.5 16.3125L21.7976 14.8469V1H15.2516V14.8688Z" fill="#FFD0A1"/>
<path d="M8.65624 1V11.9375L15.2516 14.8688V1H8.65624Z" fill="#AE938D"/>
<path d="M28.3437 11.9375V1H21.7976V14.8469L28.3437 11.9375Z" fill="#AE938D"/>
<path fill-rule="evenodd" clip-rule="evenodd" d="M30.5312 44.75V39.2813L36 33.8125L30.5312 28.3438V22.875H25.0625L18.5 16.3125L11.9375 22.875H6.46875V28.3438L1 33.8125L6.46875 39.2813V44.75H11.9375L18.5 51.3125L25.0625 44.75H30.5312ZM18.5 40.375L23.9687 37.0938V30.5313L18.5 27.25L13.0312 30.5313V37.0938L18.5 40.375Z" fill="#FFD0A1"/>
<path d="M23.9687 37.0938L18.5 40.375L13.0312 37.0938V30.5313L18.5 27.25L23.9687 30.5313V37.0938Z" fill="#E4F2DE"/>
<path d="M18.5 16.3125L11.9375 22.875H6.46875V28.3438L1 33.8125L6.46875 39.2813V44.75H11.9375L18.5 51.3125L25.0625 44.75H30.5312V39.2813L36 33.8125L30.5312 28.3438V22.875H25.0625L18.5 16.3125ZM18.5 16.3125L15.2516 14.8688M18.5 16.3125L21.7976 14.8469M8.65624 1V11.9375L15.2516 14.8688M8.65624 1H3.89843M8.65624 1H15.2516M28.3437 1V11.9375L21.7976 14.8469M28.3437 1H33.0687M28.3437 1H21.7976M15.2516 1V14.8688M15.2516 1H21.7976M21.7976 1V14.8469M23.9687 37.0938L18.5 40.375L13.0312 37.0938V30.5313L18.5 27.25L23.9687 30.5313V37.0938Z" stroke="#51565F" stroke-miterlimit="10" stroke-linecap="round" stroke-linejoin="round"/>
</svg>
