<svg width="50" height="50" viewBox="0 0 50 50" fill="none" xmlns="http://www.w3.org/2000/svg">
<g clip-path="url(#clip0_147_677)">
<path d="M0.0625 2.15015V11.259H46V2.15015H41.0697V3.71389H40.0133V2.15015H35.2395V3.71389H34.183V2.15015H29.4093V3.71389H28.3528V2.15015H23.3834V3.71389H22.3269V2.15015H17.5923V3.71389H16.5358V2.15015H11.5664V3.71389H10.51V2.15015H5.81447V3.71389H4.75799V2.15015H0.0625Z" fill="#E4F2DE"/>
<path d="M4.75799 3.71389H5.81447V2.15015V0H4.75799V2.15015V3.71389Z" fill="#FFD0A1"/>
<path d="M10.51 3.71389H11.5664V2.15015V0H10.51V2.15015V3.71389Z" fill="#FFD0A1"/>
<path d="M16.5358 3.71389H17.5923V2.15015V0H16.5358V2.15015V3.71389Z" fill="#FFD0A1"/>
<path d="M22.3269 3.71389H23.3834V2.15015V0H22.3269V2.15015V3.71389Z" fill="#FFD0A1"/>
<path d="M28.3528 3.71389H29.4093V2.15015V0H28.3528V2.15015V3.71389Z" fill="#FFD0A1"/>
<path d="M34.183 3.71389H35.2395V2.15015V0H34.183V2.15015V3.71389Z" fill="#FFD0A1"/>
<path d="M40.0133 3.71389H41.0697V2.15015V0H40.0133V2.15015V3.71389Z" fill="#FFD0A1"/>
<path d="M0.0625 36.8653L8.39699 44.684V36.8653H0.0625Z" fill="#E4F2DE"/>
<path d="M0.0625 36.8653V46.6778H44.2001H46V44.684H42.7132H8.39699L0.0625 36.8653Z" fill="#AE938D"/>
<path d="M0.0625 49.0625H46V46.8733V46.6778H44.2001H0.0625V49.0625Z" fill="#83716D"/>
<path d="M21.1139 14.5428H24.8703V18.2567H21.1139V14.5428Z" fill="#FCFCFC"/>
<path d="M26.905 14.5428H30.6614V18.2567H26.905V14.5428Z" fill="white"/>
<path d="M33.2831 14.5428H37.0394V18.2567H33.2831V14.5428Z" fill="white"/>
<path d="M38.8003 14.5428H42.5566V18.2567H38.8003V14.5428Z" fill="white"/>
<path d="M38.8003 20.4851H42.5566V24.199H38.8003V20.4851Z" fill="white"/>
<path d="M32.8135 20.4851H36.5699V24.199H32.8135V20.4851Z" fill="white"/>
<path d="M26.905 20.4851H30.6614V24.199H26.905V20.4851Z" fill="white"/>
<path d="M15.1663 20.4851H18.9227V24.199H15.1663V20.4851Z" fill="white"/>
<path d="M9.41434 20.4851H13.1707V24.199H9.41434V20.4851Z" fill="white"/>
<path d="M3.50586 20.4851H7.26224V24.199H3.50586V20.4851Z" fill="white"/>
<path d="M3.50586 26.2709H7.26224V29.9848H3.50586V26.2709Z" fill="white"/>
<path d="M3.4276 32.0177H7.18399V35.7316H3.4276V32.0177Z" fill="white"/>
<path d="M9.41434 26.2709H13.1707V29.9848H9.41434V26.2709Z" fill="white"/>
<path d="M9.41434 32.1741H13.1707V35.8879H9.41434V32.1741Z" fill="white"/>
<path d="M9.60999 37.9599H13.3664V41.6738H9.60999V37.9599Z" fill="white"/>
<path d="M15.1663 26.2709H18.9227V29.9848H15.1663V26.2709Z" fill="white"/>
<path d="M15.1663 32.1741H18.9227V35.8879H15.1663V32.1741Z" fill="white"/>
<path d="M15.1663 37.9599H18.9227V41.6738H15.1663V37.9599Z" fill="white"/>
<path d="M21.1139 26.2709H24.8703V29.9848H21.1139V26.2709Z" fill="white"/>
<path d="M21.1139 32.1741H24.8703V35.8879H21.1139V32.1741Z" fill="white"/>
<path d="M21.1139 37.9599H24.8703V41.6738H21.1139V37.9599Z" fill="white"/>
<path d="M26.905 26.2709H30.6614V29.9848H26.905V26.2709Z" fill="white"/>
<path d="M27.0615 32.1741H30.8179V35.8879H27.0615V32.1741Z" fill="white"/>
<path d="M27.0615 37.9599H30.8179V41.6738H27.0615V37.9599Z" fill="white"/>
<path d="M32.8135 26.2709H36.5699V29.9848H32.8135V26.2709Z" fill="white"/>
<path d="M38.8003 26.2709H42.5566V29.9848H38.8003V26.2709Z" fill="white"/>
<path d="M32.97 32.1741H36.7264V35.8879H32.97V32.1741Z" fill="white"/>
<path d="M38.8003 32.1741H42.5566V35.8879H38.8003V32.1741Z" fill="white"/>
<path d="M32.97 37.9599H36.7264V41.6738H32.97V37.9599Z" fill="white"/>
<path fill-rule="evenodd" clip-rule="evenodd" d="M46 11.259H0.0625V36.8653H8.39699V44.684H42.7132H46V11.259ZM24.8703 14.5428H21.1139V18.2567H24.8703V14.5428ZM30.6614 14.5428H26.905V18.2567H30.6614V14.5428ZM24.8703 20.4851H21.1139V24.199H24.8703V20.4851ZM30.6614 20.4851H26.905V24.199H30.6614V20.4851ZM36.5699 20.4851H32.8135V24.199H36.5699V20.4851ZM37.0394 14.5428H33.2831V18.2567H37.0394V14.5428ZM42.5566 14.5428H38.8003V18.2567H42.5566V14.5428ZM42.5566 20.4851H38.8003V24.199H42.5566V20.4851ZM24.8703 26.2709H21.1139V29.9848H24.8703V26.2709ZM30.6614 26.2709H26.905V29.9848H30.6614V26.2709ZM24.8703 32.1741H21.1139V35.8879H24.8703V32.1741ZM30.8179 32.1741H27.0615V35.8879H30.8179V32.1741ZM36.7264 32.1741H32.97V35.8879H36.7264V32.1741ZM36.5699 26.2709H32.8135V29.9848H36.5699V26.2709ZM42.5566 26.2709H38.8003V29.9848H42.5566V26.2709ZM42.5566 32.1741H38.8003V35.8879H42.5566V32.1741ZM7.26224 20.4851H3.50586V24.199H7.26224V20.4851ZM13.1707 20.4851H9.41434V24.199H13.1707V20.4851ZM7.26224 26.2709H3.50586V29.9848H7.26224V26.2709ZM13.1707 26.2709H9.41434V29.9848H13.1707V26.2709ZM18.9227 26.2709H15.1663V29.9848H18.9227V26.2709ZM18.9227 20.4851H15.1663V24.199H18.9227V20.4851ZM24.8703 37.9599H21.1139V41.6738H24.8703V37.9599ZM30.8179 37.9599H27.0615V41.6738H30.8179V37.9599ZM36.7264 37.9599H32.97V41.6738H36.7264V37.9599ZM18.9227 32.1741H15.1663V35.8879H18.9227V32.1741ZM18.9227 37.9599H15.1663V41.6738H18.9227V37.9599ZM13.1707 32.1741H9.41434V35.8879H13.1707V32.1741ZM7.18399 32.0177H3.4276V35.7316H7.18399V32.0177ZM13.3664 37.9599H9.60999V41.6738H13.3664V37.9599Z" fill="#FFD0A1"/>
<path d="M21.1139 20.4851H24.8703V24.199H21.1139V20.4851Z" fill="white"/>
<path d="M0.0625 11.259V2.15015H4.75799M0.0625 11.259H46M0.0625 11.259V46.6778M0.0625 11.259V36.8653M46 11.259V2.15015H41.0697M46 11.259V44.684M0.0625 46.6778V49.0625H46V46.8733V46.6778M0.0625 46.6778H44.2001H46M0.0625 46.6778V36.8653M8.39699 44.684H42.7132H46M8.39699 44.684L0.0625 36.8653M8.39699 44.684V36.8653H0.0625M3.93628 9.57794H6.71444M9.72737 9.57794H12.7403M21.5835 9.57794H24.5964M15.4402 9.57794H18.4532M33.2831 9.57794H36.296M39.035 9.57794H42.048M27.4137 9.57794H30.4266M4.75799 2.15015V0H5.81447V2.15015M4.75799 2.15015V3.71389H5.81447V2.15015M5.81447 2.15015H10.51M10.51 2.15015V0H11.5664V2.15015M10.51 2.15015V3.71389H11.5664V2.15015M11.5664 2.15015H16.5358M16.5358 2.15015V0H17.5923V2.15015M16.5358 2.15015V3.71389H17.5923V2.15015M17.5923 2.15015H22.3269M22.3269 2.15015V0H23.3834V2.15015M22.3269 2.15015V3.71389H23.3834V2.15015M23.3834 2.15015H28.3528M28.3528 2.15015V0H29.4093V2.15015M28.3528 2.15015V3.71389H29.4093V2.15015M29.4093 2.15015H34.183M34.183 2.15015V0H35.2395V2.15015M34.183 2.15015V3.71389H35.2395V2.15015M35.2395 2.15015H40.0133M40.0133 2.15015V0H41.0697V2.15015M40.0133 2.15015V3.71389H41.0697V2.15015M46 44.684V46.6778M21.1139 14.5428H24.8703V18.2567H21.1139V14.5428ZM26.905 14.5428H30.6614V18.2567H26.905V14.5428ZM21.1139 20.4851H24.8703V24.199H21.1139V20.4851ZM26.905 20.4851H30.6614V24.199H26.905V20.4851ZM32.8135 20.4851H36.5699V24.199H32.8135V20.4851ZM33.2831 14.5428H37.0394V18.2567H33.2831V14.5428ZM38.8003 14.5428H42.5566V18.2567H38.8003V14.5428ZM38.8003 20.4851H42.5566V24.199H38.8003V20.4851ZM21.1139 26.2709H24.8703V29.9848H21.1139V26.2709ZM26.905 26.2709H30.6614V29.9848H26.905V26.2709ZM21.1139 32.1741H24.8703V35.8879H21.1139V32.1741ZM27.0615 32.1741H30.8179V35.8879H27.0615V32.1741ZM32.97 32.1741H36.7264V35.8879H32.97V32.1741ZM32.8135 26.2709H36.5699V29.9848H32.8135V26.2709ZM38.8003 26.2709H42.5566V29.9848H38.8003V26.2709ZM38.8003 32.1741H42.5566V35.8879H38.8003V32.1741ZM3.50586 20.4851H7.26224V24.199H3.50586V20.4851ZM9.41434 20.4851H13.1707V24.199H9.41434V20.4851ZM3.50586 26.2709H7.26224V29.9848H3.50586V26.2709ZM9.41434 26.2709H13.1707V29.9848H9.41434V26.2709ZM15.1663 26.2709H18.9227V29.9848H15.1663V26.2709ZM15.1663 20.4851H18.9227V24.199H15.1663V20.4851ZM21.1139 37.9599H24.8703V41.6738H21.1139V37.9599ZM27.0615 37.9599H30.8179V41.6738H27.0615V37.9599ZM32.97 37.9599H36.7264V41.6738H32.97V37.9599ZM15.1663 32.1741H18.9227V35.8879H15.1663V32.1741ZM15.1663 37.9599H18.9227V41.6738H15.1663V37.9599ZM9.41434 32.1741H13.1707V35.8879H9.41434V32.1741ZM3.4276 32.0177H7.18399V35.7316H3.4276V32.0177ZM9.60999 37.9599H13.3664V41.6738H9.60999V37.9599Z" stroke="#51565F"/>
</g>
<defs>
<clipPath id="clip0_147_677">
<rect width="50" height="50" fill="white"/>
</clipPath>
</defs>
</svg>
