<svg width="55" height="58" viewBox="0 0 55 58" fill="none" xmlns="http://www.w3.org/2000/svg">
<g clip-path="url(#clip0_147_673)" filter="url(#filter0_d_147_673)">
<path d="M10.8505 3.81482V32.6266H4.47803V22.4577L6.07118 20.7629L4.47803 19.0681V3.81482C4.47803 1.95056 5.91184 0.425224 7.66424 0.425224C9.41665 0.425224 10.8505 1.95056 10.8505 3.81482Z" fill="#AE938D"/>
<path d="M44.3062 36.0163V44.4903H37.9338L37.1372 45.3377L36.3407 44.4903H17.2232V46.1852C17.2232 48.0494 15.7894 49.5748 14.037 49.5748C12.2846 49.5748 10.8508 48.0494 10.8508 46.1852V41.1007L12.4439 39.4059L10.8508 37.711V32.6266V3.81482C10.8508 1.95056 9.41696 0.425224 7.66455 0.425224H41.1202C42.8726 0.425224 44.3064 1.95056 44.3064 3.81482V13.9837H41.1202L44.3064 17.3733V32.6266L42.7132 34.3215L44.3062 36.0163Z" fill="#FFD0A1"/>
<path d="M50.6787 44.4903V46.1852C50.6787 48.0494 49.2449 49.5748 47.4925 49.5748H14.0369C15.7893 49.5748 17.2231 48.0494 17.2231 46.1852V44.4903H36.3406L37.1371 45.3377L37.9336 44.4903H44.3062H50.6787Z" fill="#E4F2DE"/>
<path d="M47.4923 49.9985H18.8161C18.5771 49.9985 18.4177 49.829 18.4177 49.5748C18.4177 49.3206 18.5771 49.151 18.8161 49.151H47.4923C49.0057 49.151 50.2803 47.7952 50.2803 46.1851V44.914H38.0929L37.376 45.6766C37.2166 45.8462 36.9777 45.8462 36.8184 45.6766L36.1015 44.914H17.5416V46.1851C17.5416 48.3036 15.9484 49.9984 13.9571 49.9984C11.9657 49.9984 10.3725 48.3036 10.3725 46.1851V41.1006C10.3725 41.0159 10.4522 40.8464 10.4522 40.7617L11.7266 39.4059L10.4522 38.0501C10.3725 37.9654 10.3725 37.8806 10.3725 37.7112V3.81483C10.3725 2.20479 9.09806 0.848869 7.58453 0.848869C6.071 0.848869 4.79653 2.20479 4.79653 3.81483V18.8986L6.30997 20.5087C6.46931 20.6782 6.46931 20.9324 6.30997 21.1018L4.79653 22.7121V32.2878H7.58453C7.8235 32.2878 7.98284 32.4573 7.98284 32.7115C7.98284 32.9657 7.8235 33.1353 7.58453 33.1353H4.39831C4.15934 33.1353 4 32.9657 4 32.7115V22.5426C4 22.4579 4.07963 22.2884 4.07963 22.2037L5.35409 20.8479L4.07963 19.4919C4 19.4071 4 19.3224 4 19.1528V3.89953C4 1.78105 5.59316 0.086203 7.58453 0.086203C9.5759 0.086203 11.1691 1.78105 11.1691 3.89953V37.6263L12.6825 39.2364C12.8418 39.4059 12.8418 39.6601 12.6825 39.8295L11.1691 41.4397V46.3546C11.1691 47.9646 12.4435 49.3206 13.9571 49.3206C15.4706 49.3206 16.7451 47.9647 16.7451 46.3546V44.6598C16.7451 44.4055 16.9044 44.236 17.1434 44.236H36.2609C36.3405 44.236 36.4998 44.3207 36.5795 44.3207L37.0574 44.8292L37.5353 44.3207C37.615 44.236 37.6947 44.236 37.8539 44.236H50.5989C50.8379 44.236 50.9972 44.4055 50.9972 44.6598V46.3546C51.0768 48.3037 49.4837 49.9985 47.4923 49.9985ZM44.306 41.5245C44.067 41.5245 43.9077 41.355 43.9077 41.1007V36.1858L42.3942 34.5758C42.2349 34.4063 42.2349 34.152 42.3942 33.9826L43.9077 32.3726V17.4581L40.8011 14.1532C40.7215 14.0685 40.6417 13.8143 40.7215 13.7295C40.8011 13.6448 40.9604 13.4753 41.1198 13.4753H43.9078V3.81483C43.9078 2.20479 42.6333 0.848869 41.1198 0.848869H13.2401C13.0011 0.848869 12.8417 0.679355 12.8417 0.425133C12.8417 0.170911 13.0011 0.00139618 13.2401 0.00139618H41.1198C43.1111 0.00139618 44.7043 1.69624 44.7043 3.81473V13.9836C44.7043 14.2378 44.545 14.4073 44.306 14.4073H42.0756L44.545 17.0343C44.6246 17.119 44.6246 17.2038 44.6246 17.3732V32.6265C44.6246 32.7112 44.545 32.8807 44.545 32.9654L43.2705 34.3213L44.545 35.6771C44.6246 35.7618 44.6246 35.8466 44.6246 36.016V41.1004C44.7043 41.355 44.545 41.5245 44.306 41.5245ZM33.1542 38.1348H29.968C29.729 38.1348 29.5696 37.9653 29.5696 37.7111C29.5696 37.4568 29.729 37.2873 29.968 37.2873H33.1542C33.3931 37.2873 33.5525 37.4568 33.5525 37.7111C33.5524 37.9654 33.3931 38.1348 33.1542 38.1348ZM26.7816 38.1348H17.2229C16.9839 38.1348 16.8246 37.9653 16.8246 37.7111C16.8246 37.4568 16.9839 37.2873 17.2229 37.2873H26.7816C27.0206 37.2873 27.18 37.4568 27.18 37.7111C27.18 37.9654 27.0206 38.1348 26.7816 38.1348ZM36.3404 33.0504H26.7816C26.5427 33.0504 26.3833 32.8808 26.3833 32.6266C26.3833 32.3724 26.5427 32.2029 26.7816 32.2029H36.3404C36.5794 32.2029 36.7387 32.3724 36.7387 32.6266C36.7387 32.8808 36.5794 33.0504 36.3404 33.0504ZM23.5954 33.0504H22.0023C21.7633 33.0504 21.604 32.8808 21.604 32.6266C21.604 32.3724 21.7633 32.2029 22.0023 32.2029H23.5954C23.8344 32.2029 23.9937 32.3724 23.9937 32.6266C23.9937 32.8808 23.8344 33.0504 23.5954 33.0504ZM18.8161 33.0504H17.2229C16.9839 33.0504 16.8246 32.8808 16.8246 32.6266C16.8246 32.3724 16.9839 32.2029 17.2229 32.2029H18.8161C19.055 32.2029 19.2144 32.3724 19.2144 32.6266C19.2144 32.8808 19.055 33.0504 18.8161 33.0504ZM34.7472 27.9659H29.9679C29.7289 27.9659 29.5696 27.7964 29.5696 27.5422C29.5696 27.288 29.7289 27.1184 29.9679 27.1184H34.7472C34.9862 27.1184 35.1455 27.288 35.1455 27.5422C35.1455 27.7965 34.9863 27.9659 34.7472 27.9659ZM26.7816 27.9659H25.1885C24.9495 27.9659 24.7902 27.7964 24.7902 27.5422C24.7902 27.288 24.9495 27.1184 25.1885 27.1184H26.7816C27.0206 27.1184 27.18 27.288 27.18 27.5422C27.18 27.7965 27.0206 27.9659 26.7816 27.9659ZM22.0023 27.9659H17.2229C16.9839 27.9659 16.8246 27.7964 16.8246 27.5422C16.8246 27.288 16.9839 27.1184 17.2229 27.1184H22.0023C22.2412 27.1184 22.4006 27.288 22.4006 27.5422C22.4006 27.7965 22.2412 27.9659 22.0023 27.9659ZM36.3404 22.8815H29.9679C29.7289 22.8815 29.5696 22.712 29.5696 22.4577C29.5696 22.2035 29.7289 22.034 29.9679 22.034H36.3404C36.5794 22.034 36.7387 22.2035 36.7387 22.4577C36.7387 22.7121 36.5794 22.8815 36.3404 22.8815ZM26.7816 22.8815H17.2229C16.9839 22.8815 16.8246 22.712 16.8246 22.4577C16.8246 22.2035 16.9839 22.034 17.2229 22.034H26.7816C27.0206 22.034 27.18 22.2035 27.18 22.4577C27.18 22.7121 27.0206 22.8815 26.7816 22.8815ZM34.7472 17.797H25.1885C24.9495 17.797 24.7902 17.6275 24.7902 17.3733C24.7902 17.1191 24.9495 16.9496 25.1885 16.9496H34.7472C34.9862 16.9496 35.1455 17.1191 35.1455 17.3733C35.1455 17.6276 34.9863 17.797 34.7472 17.797ZM22.0023 17.797H17.2229C16.9839 17.797 16.8246 17.6275 16.8246 17.3733C16.8246 17.1191 16.9839 16.9496 17.2229 16.9496H22.0023C22.2412 16.9496 22.4006 17.1191 22.4006 17.3733C22.4006 17.6276 22.2412 17.797 22.0023 17.797ZM26.7816 12.7126H17.2229C16.9839 12.7126 16.8246 12.5431 16.8246 12.2889C16.8246 12.0346 16.9839 11.8651 17.2229 11.8651H26.7816C27.0206 11.8651 27.18 12.0346 27.18 12.2889C27.18 12.5431 27.0206 12.7126 26.7816 12.7126Z" fill="#51565F"/>
</g>
<defs>
<filter id="filter0_d_147_673" x="0" y="0" width="55" height="58" filterUnits="userSpaceOnUse" color-interpolation-filters="sRGB">
<feFlood flood-opacity="0" result="BackgroundImageFix"/>
<feColorMatrix in="SourceAlpha" type="matrix" values="0 0 0 0 0 0 0 0 0 0 0 0 0 0 0 0 0 0 127 0" result="hardAlpha"/>
<feOffset dy="4"/>
<feGaussianBlur stdDeviation="2"/>
<feColorMatrix type="matrix" values="0 0 0 0 0 0 0 0 0 0 0 0 0 0 0 0 0 0 0.25 0"/>
<feBlend mode="normal" in2="BackgroundImageFix" result="effect1_dropShadow_147_673"/>
<feBlend mode="normal" in="SourceGraphic" in2="effect1_dropShadow_147_673" result="shape"/>
</filter>
<clipPath id="clip0_147_673">
<rect width="47" height="50" fill="white" transform="translate(4)"/>
</clipPath>
</defs>
</svg>
