<svg width="40" height="40" viewBox="0 0 40 40" fill="none" xmlns="http://www.w3.org/2000/svg">
<g filter="url(#filter0_d_147_687)">
<path fill-rule="evenodd" clip-rule="evenodd" d="M27.6914 2.50287L30.3667 4.38496C29.8251 5.84441 29.0905 9.53594 33.8942 9.53594L34.9643 12.6662C32.0908 14.6473 32.6457 17.4803 35.0436 18.986L34.0924 22.1162C31.4765 21.8389 28.7021 23.7804 30.4658 27.3068L27.7112 29.2087C25.67 27.3068 22.4002 27.3861 21.7661 31.1304H18.4962C17.9215 28.2974 14.83 26.7719 12.3331 29.2285L9.7172 27.3266C9.7172 27.3266 11.7584 21.9577 5.93211 22.2153L4.8818 19.0454C7.71567 18.0152 7.97329 13.9737 4.78271 12.6265L5.79339 9.51613C9.04343 9.61519 11.0846 8.20858 9.67756 4.34534L12.2736 2.52269C14.7904 4.54345 17.5054 3.94911 18.516 0.521729H21.5283C22.4993 3.83024 25.1152 4.68213 27.6914 2.50287ZM20.0618 23.8596C24.5053 23.8596 27.9688 20.2584 27.9688 15.8162C27.9688 11.3739 24.5053 7.89159 20.0618 7.89159C15.6182 7.89159 12.016 11.3739 12.016 15.8162C12.016 20.2584 15.6182 23.8596 20.0618 23.8596Z" fill="#CCCCCC"/>
<path fill-rule="evenodd" clip-rule="evenodd" d="M27.9688 15.8162C27.9688 20.2584 24.5053 23.8596 20.0618 23.8596C15.6182 23.8596 12.016 20.2584 12.016 15.8162C12.016 11.3739 15.6182 7.89159 20.0618 7.89159C24.5053 7.89159 27.9688 11.3739 27.9688 15.8162ZM20.0847 20.3134C24.5283 20.3134 24.5436 16.1332 24.5436 15.8558C24.5436 15.6379 24.5352 11.3388 20.0917 11.3388C15.6481 11.3388 15.6318 15.6181 15.6259 15.8162C15.62 16.0143 15.6412 20.3134 20.0847 20.3134Z" fill="#AE938D"/>
<path fill-rule="evenodd" clip-rule="evenodd" d="M27.6914 2.50287L30.3667 4.38496C29.8251 5.84441 29.0905 9.53594 33.8942 9.53594L34.9643 12.6662C32.0908 14.6473 32.6457 17.4803 35.0436 18.986L34.0924 22.1162C31.4765 21.8389 28.7021 23.7804 30.4658 27.3068L27.7112 29.2087C25.67 27.3068 22.4002 27.3861 21.7661 31.1304H18.4962C17.9215 28.2974 14.83 26.7719 12.3331 29.2285L9.7172 27.3266C9.7172 27.3266 11.7584 21.9577 5.93211 22.2153L4.8818 19.0454C7.71567 18.0152 7.97329 13.9737 4.78271 12.6265L5.79339 9.51613C9.04343 9.61519 11.0846 8.20858 9.67756 4.34534L12.2736 2.52269C14.7904 4.54345 17.5054 3.94911 18.516 0.521729H21.5283C22.4993 3.83024 25.1152 4.68213 27.6914 2.50287ZM20.0618 23.8596C24.5053 23.8596 27.9688 20.2584 27.9688 15.8162C27.9688 11.3739 24.5053 7.89159 20.0618 7.89159C15.6182 7.89159 12.016 11.3739 12.016 15.8162C12.016 20.2584 15.6182 23.8596 20.0618 23.8596Z" stroke="#51565F" stroke-linejoin="round"/>
<path d="M20.0847 20.3134C24.5283 20.3134 24.5436 16.1332 24.5436 15.8558C24.5436 15.6379 24.5352 11.3388 20.0917 11.3388C15.6481 11.3388 15.6318 15.6181 15.6259 15.8162C15.62 16.0143 15.6412 20.3134 20.0847 20.3134Z" stroke="#51565F" stroke-linejoin="round"/>
<path fill-rule="evenodd" clip-rule="evenodd" d="M27.9688 15.8162C27.9688 20.2584 24.5053 23.8596 20.0618 23.8596C15.6182 23.8596 12.016 20.2584 12.016 15.8162C12.016 11.3739 15.6182 7.89159 20.0618 7.89159C24.5053 7.89159 27.9688 11.3739 27.9688 15.8162ZM20.0847 20.3134C24.5283 20.3134 24.5436 16.1332 24.5436 15.8558C24.5436 15.6379 24.5352 11.3388 20.0917 11.3388C15.6481 11.3388 15.6318 15.6181 15.6259 15.8162C15.62 16.0143 15.6412 20.3134 20.0847 20.3134Z" stroke="#51565F" stroke-linejoin="round"/>
</g>
<defs>
<filter id="filter0_d_147_687" x="0" y="0" width="42" height="42" filterUnits="userSpaceOnUse" color-interpolation-filters="sRGB">
<feFlood flood-opacity="0" result="BackgroundImageFix"/>
<feColorMatrix in="SourceAlpha" type="matrix" values="0 0 0 0 0 0 0 0 0 0 0 0 0 0 0 0 0 0 127 0" result="hardAlpha"/>
<feOffset dy="4"/>
<feGaussianBlur stdDeviation="2"/>
<feColorMatrix type="matrix" values="0 0 0 0 0 0 0 0 0 0 0 0 0 0 0 0 0 0 0.25 0"/>
<feBlend mode="normal" in2="BackgroundImageFix" result="effect1_dropShadow_147_687"/>
<feBlend mode="normal" in="SourceGraphic" in2="effect1_dropShadow_147_687" result="shape"/>
</filter>
</defs>
</svg>
